<?xml version="1.0" standalone="no"?>
<!DOCTYPE svg PUBLIC "-//W3C//DTD SVG 20010904//EN"
 "http://www.w3.org/TR/2001/REC-SVG-20010904/DTD/svg10.dtd">
<svg version="1.0" xmlns="http://www.w3.org/2000/svg"
 width="936.000000pt" height="936.000000pt" viewBox="0 0 936.000000 936.000000"
 preserveAspectRatio="xMidYMid meet">
<metadata>
Created by potrace 1.11, written by Peter Selinger 2001-2013
</metadata>
<g transform="translate(0.000000,936.000000) scale(0.100000,-0.100000)"
fill="#000000" stroke="none">
<path d="M4279 8935 c-2 -1 -38 -6 -79 -9 -142 -13 -155 -14 -200 -20 -25 -4
-72 -12 -105 -17 -33 -6 -71 -12 -85 -14 -14 -2 -25 -4 -25 -5 0 -1 -13 -4
-30 -6 -54 -9 -331 -81 -385 -101 -8 -4 -19 -7 -25 -8 -29 -7 -171 -59 -180
-67 -5 -4 -15 -8 -23 -8 -7 0 -32 -8 -55 -19 -23 -10 -64 -29 -92 -40 -69 -30
-319 -154 -325 -162 -3 -3 -25 -16 -50 -30 -51 -27 -139 -83 -157 -99 -7 -5
-17 -10 -23 -10 -5 0 -10 -5 -10 -11 0 -5 -4 -7 -10 -4 -5 3 -10 2 -10 -2 0
-5 -14 -17 -32 -27 -17 -11 -39 -25 -47 -32 -9 -7 -54 -41 -101 -76 -47 -34
-95 -73 -106 -85 -12 -13 -25 -23 -29 -23 -17 0 -415 -391 -415 -408 0 -6 -4
-12 -9 -14 -7 -2 -63 -69 -134 -158 -50 -64 -97 -131 -97 -140 0 -5 -4 -10 -9
-10 -4 0 -25 -27 -45 -60 -20 -33 -45 -67 -54 -77 -9 -9 -15 -17 -13 -17 2 -1
-11 -27 -30 -59 -61 -105 -80 -141 -125 -227 -49 -96 -114 -237 -133 -290 -7
-19 -17 -44 -22 -55 -15 -35 -32 -80 -35 -92 -2 -11 -26 -81 -42 -123 -3 -8
-7 -22 -8 -30 -1 -8 -9 -34 -18 -57 -8 -24 -13 -43 -9 -43 3 0 1 -6 -5 -12 -6
-7 -14 -31 -18 -53 -10 -51 -11 -55 -14 -57 -2 -3 -9 -42 -14 -74 -1 -11 -5
-25 -9 -31 -4 -5 -8 -24 -9 -42 -1 -17 -5 -31 -8 -31 -3 0 -5 -10 -6 -22 -1
-24 -11 -94 -20 -141 -3 -16 -8 -47 -10 -70 -2 -23 -5 -51 -8 -62 -25 -116
-26 -646 -2 -820 2 -16 8 -61 12 -100 8 -70 10 -83 13 -87 1 -2 4 -19 7 -38 2
-19 6 -46 10 -60 3 -14 8 -41 10 -60 3 -19 7 -43 10 -52 3 -9 6 -25 8 -35 11
-53 49 -193 61 -225 8 -21 12 -38 9 -38 -4 0 -1 -7 6 -15 7 -8 10 -15 6 -15
-3 0 0 -17 8 -37 13 -35 19 -53 26 -78 2 -5 18 -48 37 -95 18 -47 33 -91 33
-97 0 -7 5 -13 10 -13 24 0 7 -47 -28 -81 -20 -20 -77 -80 -127 -133 -49 -54
-114 -123 -144 -154 -29 -31 -102 -109 -161 -172 -60 -63 -134 -142 -166 -175
-129 -136 -240 -258 -247 -271 -8 -14 4 -40 38 -82 8 -9 44 -55 81 -102 61
-76 434 -459 434 -445 0 3 15 -9 33 -27 19 -18 58 -53 87 -77 29 -25 58 -51
66 -58 7 -7 17 -13 23 -13 6 0 11 -3 11 -7 1 -13 252 -211 445 -351 77 -56
145 -106 150 -110 6 -5 24 -17 40 -28 17 -10 32 -21 35 -24 3 -3 28 -20 55
-38 80 -52 86 -56 115 -80 15 -12 30 -22 33 -22 6 0 72 -41 92 -58 6 -4 66
-43 135 -87 115 -73 329 -181 445 -225 11 -5 36 -15 55 -23 65 -29 335 -127
348 -127 7 0 26 -7 41 -15 16 -8 39 -16 52 -18 13 -3 53 -14 89 -26 36 -12 76
-24 90 -26 14 -3 50 -12 80 -20 30 -9 64 -18 75 -20 19 -3 35 -7 95 -21 52
-11 277 -52 320 -58 25 -3 56 -8 70 -10 23 -5 58 -8 235 -22 167 -14 617 -6
707 11 13 3 50 7 83 10 33 3 78 9 100 14 22 6 56 12 75 15 42 6 100 17 160 31
3 1 32 7 65 15 33 8 62 14 65 15 48 13 118 34 220 68 69 22 127 41 130 42 3 1
16 6 30 12 14 6 66 28 115 48 50 21 112 48 139 61 28 13 56 24 63 24 7 0 13 3
13 8 0 4 29 21 65 37 35 17 65 33 65 38 0 4 5 7 12 7 37 0 466 283 578 382 9
7 40 33 70 58 99 81 133 113 290 272 167 169 182 185 250 268 25 30 47 57 50
60 3 3 27 34 55 70 27 36 52 67 55 70 4 3 22 28 40 55 19 28 37 52 42 53 4 2
8 10 8 18 0 8 5 14 10 14 6 0 10 6 10 14 0 8 3 16 8 18 4 2 31 39 61 83 30 44
57 82 60 85 3 3 15 21 25 40 11 19 23 37 26 40 7 5 49 77 84 145 12 22 23 42
26 45 14 12 155 319 164 355 2 6 8 24 15 40 7 17 22 57 33 90 12 33 25 71 31
85 6 14 11 30 12 35 2 6 15 50 30 99 15 49 28 94 29 100 2 6 9 31 16 56 8 25
14 47 15 50 4 19 38 148 43 160 8 22 10 32 16 61 3 14 12 45 20 68 9 22 13 41
11 41 -2 0 3 16 11 35 8 19 11 35 7 35 -4 0 -2 5 4 11 7 7 28 7 69 0 33 -6 77
-12 99 -15 22 -3 51 -7 65 -10 14 -3 45 -7 70 -10 25 -3 59 -8 75 -12 29 -6
66 -11 135 -19 19 -2 36 -4 38 -5 4 -4 15 -6 82 -14 36 -4 74 -10 85 -12 71
-14 107 -15 102 -2 -25 61 -121 275 -126 283 -4 6 -13 29 -21 53 -7 23 -17 42
-22 42 -4 0 -8 7 -8 15 0 8 -4 23 -10 33 -13 23 -70 152 -70 158 0 2 -18 42
-40 89 -22 47 -40 87 -40 90 0 3 -16 40 -36 82 -20 43 -43 96 -52 118 -8 22
-19 45 -23 51 -5 6 -15 28 -23 50 -8 21 -24 62 -37 89 -13 28 -24 52 -24 55
-1 3 -9 21 -18 40 -131 292 -169 377 -171 385 -1 6 -13 35 -27 65 -15 30 -66
145 -114 255 -195 444 -172 400 -194 381 -20 -18 -18 -20 -36 39 -45 145 -184
462 -272 620 -126 225 -272 434 -453 649 -30 36 -208 223 -233 245 -10 9 -42
39 -72 67 -29 28 -73 66 -96 85 -23 19 -46 39 -53 44 -104 94 -502 365 -536
365 -4 0 -10 4 -12 8 -3 7 -222 117 -343 173 -176 81 -594 211 -750 234 -16 3
-41 7 -55 10 -64 14 -198 34 -270 40 -19 2 -35 4 -35 5 0 8 -608 24 -616 15z"/>
</g>
</svg>
